<?xml version="1.0" encoding="UTF-8" standalone="no"?><!DOCTYPE svg PUBLIC "-//W3C//DTD SVG 1.1//EN" "http://www.w3.org/Graphics/SVG/1.1/DTD/svg11.dtd"><svg width="100%" height="100%" viewBox="0 0 3334 3334" version="1.1" xmlns="http://www.w3.org/2000/svg" xmlns:xlink="http://www.w3.org/1999/xlink" xml:space="preserve" xmlns:serif="http://www.serif.com/" style="fill-rule:evenodd;clip-rule:evenodd;stroke-linejoin:round;stroke-miterlimit:2;"><rect id="页面-1" serif:id="页面 1" x="0" y="0" width="3333.333" height="3333.333" style="fill:none;"/><g id="图层-1" serif:id="图层 1"><path d="M1335.271,832.437c-0.417,4.692 -1.767,9.429 -4.042,14.121c-3.579,7.204 -5.437,10.921 -5.483,11.058c-21.417,52.362 -36.379,105.696 -44.788,160.008c-12.683,95.196 -1.904,187.188 32.242,275.971c31.129,80.933 79.821,147.371 146.025,199.267c25.133,18.354 50.504,35.404 76.1,51.246c40.842,25.321 81.396,51.058 121.633,77.308c6.167,4.021 11.771,7.7 16.804,11.038c15.104,10.017 25.117,16.967 30.029,20.833c4.029,3.175 8.138,6.417 12.333,9.733c8.383,6.629 17.092,13.546 26.112,20.746c4.512,3.6 9.108,7.275 13.775,11.012l54.821,-60.442c19.467,-19.796 38.842,-36.8 58.121,-51.017c48.646,-35.912 102.446,-63.883 161.404,-83.95c-3.721,-4.233 -7.9,-7.671 -12.546,-10.362c-55.521,-32.104 -110.621,-64.721 -165.258,-97.8l-181.658,-106.812l-42.325,-25.967c-43.346,-23.604 -83.254,-48.042 -119.817,-73.267c-21.604,-14.917 -41.629,-33.129 -60.167,-54.638c-45.346,-51.992 -74.429,-112.017 -87.254,-180.079c-1.904,-10.083 -2.787,-19.608 -2.65,-28.575c0.371,-27.55 1.629,-55.054 3.812,-82.604c0.792,-9.525 2.879,-21.837 6.317,-36.983c2.742,-12.125 5.017,-24.442 6.879,-37.029l-40.421,67.183Z" style="fill:url(#_Linear1);fill-rule:nonzero;"/><path d="M885.817,1673.313c-31.454,14.171 -54.871,36.054 -70.25,65.696c-24.712,43.346 -49.2,86.833 -73.5,130.367c-90.317,162.146 -186.717,329.4 -266.446,472.821c-19.512,35.129 -31.125,57.613 -34.842,67.417c-47.717,126.325 -1.258,258.225 114.337,326.333c45.854,27.038 105.925,36.658 158.242,36.608c160.379,-0.183 377.95,-0.233 652.712,-0.087c36.938,0.042 66.392,-0.379 88.275,-1.208c8.321,-0.329 16.588,-1.35 24.717,-3.067l-0.137,-3.442c-0.05,-1.533 0.883,-2.925 2.321,-3.438c21.325,-8.225 41.533,-15.379 59.983,-29.225c27.267,-19.467 48.967,-38.467 65.137,-57.05c23.363,-26.854 41.904,-59.608 55.654,-98.312c12.079,-35.492 19.096,-66.571 21.096,-93.196c5.758,-76.938 6.225,-165.258 1.437,-265.008c-4.133,-93.337 -52.083,-182.542 -118.1,-246.654c-22.625,-21.975 -48.038,-42.975 -76.287,-63c-29.638,-20.675 -60.163,-40.142 -91.525,-58.4c-38.888,-22.671 -77.496,-44.65 -115.779,-65.975c-25.179,-8.825 -49.342,-18.954 -72.479,-30.429c-30.708,-15.283 -61.787,-29.829 -93.15,-43.721c-25.6,-11.287 -72.85,-35.029 -111.687,-48.362c-14.775,-3.692 -29.471,-5.538 -44.071,-5.537c-25.483,-0 -50.7,5.621 -75.658,16.871Z" style="fill:url(#_Linear2);fill-rule:nonzero;"/><path d="M1265.208,1053.258c-1.812,36.1 -1.396,68.25 1.3,96.546c0.417,4.042 3.858,29.362 10.408,75.962c3.017,21.554 13.288,50.733 19,67.55c4.767,13.921 10.062,27.458 15.888,40.612c3.888,8.771 8.004,17.367 12.363,25.796c10.887,21.071 23.25,41.071 37.087,60.017c5.529,7.575 11.3,14.983 17.304,22.221c3.004,3.617 6.067,7.192 9.187,10.725c9.358,10.6 19.246,20.817 29.663,30.65c1.737,1.633 3.55,3.287 5.433,4.962c5.663,5.025 11.996,10.25 19.004,15.662c9.342,7.221 19.887,14.779 31.642,22.675c48.179,32.433 98.962,59.796 138.171,87.812c95.338,57.425 180.267,127.579 244.242,218.779c5.654,8.258 11.092,16.625 16.304,25.104c5.217,8.483 10.208,17.071 14.979,25.775c9.546,17.404 18.196,35.258 25.954,53.562c10.137,24.129 18.8,48.642 25.996,73.542c2.875,9.967 5.521,19.987 7.925,30.079c1.2,5.042 2.35,10.1 3.433,15.179c2.021,9.338 3.846,20.383 5.471,33.142c1.629,12.763 3.054,27.233 4.288,43.421c1.904,25.138 4.179,50.783 6.829,77.033c2.6,-17.425 4.217,-34.717 4.838,-51.892c0.154,-4.292 0.25,-8.579 0.279,-12.858c0.096,-12.829 -0.371,-25.6 -1.4,-38.3c-1.533,-19.287 -3.954,-38.279 -7.267,-56.979c-2.204,-12.463 -4.808,-24.8 -7.804,-37.004c-4.496,-18.308 -9.879,-36.321 -16.15,-54.042c-16.725,-47.258 -39.771,-92.425 -69.133,-135.521c-33.962,-48.692 -72.108,-91.571 -114.429,-128.692c-4.667,-3.738 -9.263,-7.413 -13.775,-11.012c-9.021,-7.2 -17.729,-14.117 -26.113,-20.746c-4.196,-3.317 -8.304,-6.558 -12.333,-9.733c-4.912,-3.867 -14.925,-10.817 -30.029,-20.833c-5.033,-3.338 -10.638,-7.017 -16.804,-11.038c-40.238,-26.25 -80.792,-51.988 -121.633,-77.308c-25.596,-15.842 -50.967,-32.892 -76.1,-51.246c-66.204,-51.896 -114.896,-118.333 -146.025,-199.267c-34.146,-88.783 -44.925,-180.775 -32.242,-275.971c-9.525,4.504 -14.775,16.354 -15.75,35.633Z" style="fill:url(#_Linear3);fill-rule:nonzero;"/><path d="M1868.954,1583.321c-19.279,14.217 -38.654,31.221 -58.121,51.017l-54.821,60.442c42.321,37.121 80.467,80 114.429,128.692c29.362,43.096 52.408,88.263 69.133,135.521c6.271,17.721 11.654,35.733 16.15,54.042c2.996,12.204 5.6,24.542 7.804,37.004c3.313,18.7 5.733,37.692 7.267,56.979c1.029,12.7 1.496,25.471 1.4,38.3c-0.029,4.279 -0.125,8.567 -0.279,12.858c-0.621,17.175 -2.238,34.467 -4.838,51.892c-1.117,30.338 -6.458,62.721 -16.029,97.1c-18.213,66.483 -47.433,124.512 -87.717,174.179c-4.925,6.083 -17.233,20.629 -36.983,43.579c-0.463,0.558 -0.463,1.35 0.046,1.858l0.188,0.137c0.467,0.467 1.3,0.467 1.767,0c10.5,-9.85 16.304,-15.421 17.421,-16.679c43.021,-48.458 84.787,-97.983 125.304,-148.483l91.387,-107.508l43.671,-51.712l106.95,-123.3l24.625,-28.946c10.033,-12.779 19.233,-25.879 27.55,-39.304c46.829,-75.546 61.975,-170.7 36.146,-256.458c-25.6,-78.475 -73.267,-139.521 -143,-183.15c-29.971,-18.713 -60.854,-35.929 -91.454,-53.646c-10.2,-5.904 -20.367,-11.862 -30.458,-17.946l-6.133,-0.417c-58.958,20.067 -112.758,48.038 -161.404,83.95Z" style="fill:url(#_Linear4);fill-rule:nonzero;"/><path d="M2066.952,1517.735c-10.2,-5.904 -20.371,-11.862 -30.463,-17.95c10.092,6.088 20.263,12.046 30.463,17.95" style="fill:#b4b5fc;fill-rule:nonzero;"/><path d="M2066.95,1517.733c-10.2,-5.904 -20.367,-11.862 -30.458,-17.946c10.092,6.083 20.258,12.042 30.458,17.946Z" style="fill:url(#_Linear5);fill-rule:nonzero;"/><path d="M2066.952,1517.735c30.6,17.712 61.483,34.933 91.45,53.646c-29.967,-18.713 -60.85,-35.933 -91.45,-53.646" style="fill:#b4b5fc;fill-rule:nonzero;"/><path d="M2158.404,1571.379c-29.971,-18.713 -60.854,-35.929 -91.454,-53.646c30.6,17.717 61.483,34.933 91.454,53.646Z" style="fill:url(#_Linear6);fill-rule:nonzero;"/><path d="M2517.879,1689.371c1.625,5.304 3.146,10.658 4.558,16.063c7.067,27.013 11.421,55.254 13.079,84.725c0.3,5.333 0.483,10.629 0.55,15.888c0.138,10.517 -0.2,20.892 -1.008,31.113c-2.013,25.562 -6.958,50.212 -14.825,73.938c-12.267,49.9 -50.646,101.471 -88,134.504c-20.438,18.071 -45.483,38.746 -75.171,61.929l-233.133,191.133l-104.675,84.371l-363.362,297.021c7.292,-3.296 13.7,-8.037 19.183,-14.217c1.863,-2.088 5.3,-0.604 5.021,2.183c-0.604,5.713 0,11.662 1.904,17.933c12.825,42.417 41.071,68.996 84.696,79.771c17.888,4.417 31.267,6.829 40.05,7.25l292.462,-0.604c178.638,-0.137 357.371,-0.187 536.104,-0.137c56.079,0.046 101.979,-1.904 147.467,-19.654c125.625,-48.967 192.479,-185.75 161.258,-315.65c-7.058,-29.363 -25.463,-60.908 -40.604,-87.763c-44.646,-79.029 -89.25,-157.688 -133.854,-236.063l-120.213,-200.512c-16.222,-29.67 -31.477,-52.436 -50.814,-86.228c-8.091,-14.14 -17.199,-32.048 -26.195,-46.149c-8.081,-12.667 -15.165,-28.511 -23.212,-41.764c-7.753,-12.77 -14.522,-29.712 -22.296,-42.943c-3.229,-5.483 -7.203,-13.738 -10.592,-19.75c-2.756,-4.889 -5.787,-13.616 -9.454,-17.638c4.125,10.221 7.812,20.638 11.075,31.25Z" style="fill:url(#_Linear7);fill-rule:nonzero;"/><path d="M2536.07,1806.045c0.133,10.517 -0.204,20.888 -1.008,31.112c0.804,-10.225 1.142,-20.596 1.008,-31.112" style="fill:#b4b5fc;fill-rule:nonzero;"/><path d="M2536.096,1810.967c0.004,-1.637 -0.004,-3.279 -0.029,-4.921c0.025,1.642 0.033,3.283 0.029,4.921Zm-1.037,26.192c0.683,-8.625 1.029,-17.358 1.037,-26.192c-0.008,8.833 -0.354,17.567 -1.037,26.192Z" style="fill:url(#_Linear8);fill-rule:nonzero;"/><path d="M1378.56,1441.96c-6.004,-7.237 -11.775,-14.642 -17.308,-22.221c5.533,7.579 11.304,14.983 17.308,22.221" style="fill:#b4b5fc;fill-rule:nonzero;"/><path d="M1378.558,1441.963c-6.004,-7.237 -11.775,-14.646 -17.304,-22.221c5.529,7.575 11.3,14.983 17.304,22.221Z" style="fill:url(#_Linear9);fill-rule:nonzero;"/><path d="M1387.743,1452.687c9.358,10.6 19.25,20.817 29.667,30.65c-10.417,-9.833 -20.308,-20.05 -29.667,-30.65" style="fill:#b4b5fc;fill-rule:nonzero;"/><path d="M1417.408,1483.338c-10.417,-9.833 -20.304,-20.05 -29.662,-30.65c9.358,10.6 19.246,20.817 29.662,30.65Z" style="fill:url(#_Linear10);fill-rule:nonzero;"/><path d="M1441.843,1503.962c-7.008,-5.412 -13.342,-10.637 -19,-15.662c5.658,5.025 11.992,10.25 19,15.662" style="fill:#b4b5fc;fill-rule:nonzero;"/><path d="M1441.846,1503.962c-7.008,-5.412 -13.342,-10.638 -19.004,-15.662c5.663,5.025 11.996,10.25 19.004,15.662Z" style="fill:url(#_Linear11);fill-rule:nonzero;"/><path d="M1324.166,1359.724c-4.354,-8.429 -8.475,-17.025 -12.358,-25.796c3.883,8.771 8.004,17.367 12.358,25.796" style="fill:#b4b5fc;fill-rule:nonzero;"/><path d="M1324.167,1359.725c-4.358,-8.429 -8.475,-17.025 -12.363,-25.796c3.888,8.771 8.004,17.367 12.363,25.796Z" style="fill:url(#_Linear12);fill-rule:nonzero;"/><path d="M2507.452,1899.337c-25.562,-23.254 -51.213,-44.929 -77.758,-65.025c26.546,20.096 52.196,41.771 77.758,65.025" style="fill:#b4b5fc;fill-rule:nonzero;"/><path d="M2507.454,1899.337c-25.567,-23.254 -51.217,-44.929 -77.763,-65.025c26.546,20.096 52.196,41.771 77.763,65.025Z" style="fill:url(#_Linear13);fill-rule:nonzero;"/><path d="M2360.978,1787.359c-9.537,-5.821 -19.25,-11.471 -29.171,-16.942c9.921,5.471 19.633,11.121 29.171,16.942" style="fill:#b4b5fc;fill-rule:nonzero;"/><path d="M2360.979,1787.358c-9.537,-5.821 -19.25,-11.467 -29.171,-16.942c9.921,5.475 19.633,11.121 29.171,16.942Z" style="fill:url(#_Linear14);fill-rule:nonzero;"/><path d="M2429.693,1834.312c-17.696,-13.396 -35.796,-26.092 -54.537,-38.088c18.742,11.996 36.842,24.692 54.537,38.088" style="fill:#b4b5fc;fill-rule:nonzero;"/><path d="M2429.692,1834.312c-17.696,-13.4 -35.796,-26.092 -54.537,-38.087c18.742,11.996 36.842,24.688 54.537,38.087Z" style="fill:url(#_Linear15);fill-rule:nonzero;"/><path d="M1967.078,2210.066c-2.646,-26.25 -4.925,-51.896 -6.829,-77.029c1.904,25.133 4.183,50.779 6.829,77.029" style="fill:#9999f3;fill-rule:nonzero;"/><path d="M1967.079,2210.067c-2.65,-26.25 -4.925,-51.896 -6.829,-77.033c1.904,25.138 4.179,50.783 6.829,77.033Z" style="fill:url(#_Linear16);fill-rule:nonzero;"/><path d="M1955.963,2089.613c-1.625,-12.758 -3.45,-23.804 -5.471,-33.142c2.021,9.338 3.846,20.383 5.471,33.142" style="fill:#9999f3;fill-rule:nonzero;"/><path d="M1955.962,2089.613c-1.625,-12.758 -3.45,-23.804 -5.471,-33.142c2.021,9.338 3.846,20.383 5.471,33.142Z" style="fill:url(#_Linear17);fill-rule:nonzero;"/><path d="M1947.058,2041.29c-2.408,-10.088 -5.05,-20.112 -7.929,-30.075c2.879,9.963 5.521,19.987 7.929,30.075" style="fill:#9999f3;fill-rule:nonzero;"/><path d="M1947.058,2041.292c-2.404,-10.092 -5.05,-20.112 -7.925,-30.079c2.875,9.967 5.521,19.987 7.925,30.079Z" style="fill:url(#_Linear18);fill-rule:nonzero;"/><path d="M1887.185,1884.108c-4.771,-8.704 -9.763,-17.292 -14.979,-25.775c5.217,8.483 10.208,17.071 14.979,25.775" style="fill:#9999f3;fill-rule:nonzero;"/><path d="M1887.183,1884.108c-4.771,-8.704 -9.763,-17.296 -14.979,-25.775c5.217,8.479 10.208,17.071 14.979,25.775Z" style="fill:url(#_Linear19);fill-rule:nonzero;"/><path d="M1487.288,606.129c-53.383,41.858 -82,100.35 -111.596,159.125c-1.862,12.587 -4.137,24.904 -6.879,37.029c-3.438,15.146 -5.525,27.458 -6.317,36.983c-2.183,27.55 -3.442,55.05 -3.812,82.604c-0.137,8.967 0.746,18.492 2.65,28.575c12.825,68.063 41.908,128.088 87.254,180.079c18.537,21.508 38.562,39.721 60.167,54.638c36.562,25.225 76.471,49.662 119.817,73.267l42.325,25.967l181.658,106.813c54.637,33.079 109.737,65.696 165.258,97.8c4.646,2.692 8.825,6.129 12.546,10.363l6.133,0.417c1.45,-0.804 2.838,-1.537 4.162,-2.213c3.971,-2.021 7.354,-3.454 10.146,-4.292c12.279,-3.696 24.4,-6.958 36.379,-9.792c23.946,-5.667 47.296,-9.613 70.038,-11.829c11.371,-1.108 22.592,-1.787 33.662,-2.029c24.242,-0.521 49.417,1.879 75.533,7.208c10.45,2.133 21.05,4.738 31.8,7.808c5.379,1.538 10.792,3.188 16.246,4.963c0.771,0.254 1.583,0.358 2.383,0.312c0.8,-0.046 36.588,16.754 37.312,16.404l153.658,153.133l-282,-496.508l-125.392,-220.783l-101.05,-177.892c-15.054,-26.3 -29.967,-52.733 -44.788,-79.258c-10.733,-19.146 -24.163,-36.983 -40.329,-53.475c-58.308,-59.517 -130.179,-90.925 -215.671,-94.179c-4.517,-0.171 -9.017,-0.254 -13.479,-0.254c-73.288,-0.004 -139.225,22.992 -197.817,69.017Z" style="fill:url(#_Linear20);fill-rule:nonzero;"/><path d="M1315.804,865.05c-20.442,36.983 -41.071,73.825 -61.933,110.575c-86.275,152.108 -172.458,304.262 -258.55,456.421c-14.492,25.6 -23.087,48.367 -25.829,68.3c-5.112,48.688 14.308,94.267 49.017,127.158c9.15,8.687 25.225,19.558 48.175,32.617c101.471,57.608 162.704,91.15 216.179,124.371c38.283,21.325 76.892,43.304 115.779,65.975c31.362,18.258 61.887,37.725 91.525,58.4c28.25,20.025 53.662,41.025 76.287,63c66.017,64.112 113.967,153.317 118.1,246.654c4.788,99.75 4.321,188.071 -1.437,265.008c-2,26.625 -9.017,57.704 -21.096,93.196c-13.75,38.704 -32.292,71.458 -55.654,98.313c-16.171,18.583 -37.871,37.583 -65.137,57.05c-18.45,13.846 -38.658,21 -59.983,29.225c-1.437,0.512 -2.371,1.904 -2.321,3.437l0.137,3.442c44.742,-5.3 85.488,-21 122.192,-47.158c9.612,-6.821 24.438,-17.887 44.396,-33.133l180.933,-160.979l-0.188,-0.137c-0.508,-0.508 -0.508,-1.3 -0.046,-1.858c19.75,-22.95 32.058,-37.496 36.983,-43.579c40.283,-49.667 69.504,-107.696 87.717,-174.179c9.571,-34.379 14.912,-66.763 16.029,-97.1c-2.65,-26.25 -4.925,-51.896 -6.829,-77.033c-1.233,-16.187 -2.658,-30.658 -4.288,-43.421c-1.625,-12.758 -3.45,-23.804 -5.471,-33.142c-1.083,-5.079 -2.233,-10.138 -3.433,-15.179c-2.404,-10.092 -5.05,-20.112 -7.925,-30.079c-7.196,-24.9 -15.858,-49.413 -25.996,-73.542c-7.758,-18.304 -16.408,-36.158 -25.954,-53.562c-4.771,-8.704 -9.763,-17.292 -14.979,-25.775c-5.212,-8.479 -10.65,-16.846 -16.304,-25.104c-63.975,-91.2 -148.904,-161.354 -244.242,-218.779c-39.208,-28.017 -89.992,-55.379 -138.171,-87.812c-11.754,-7.896 -22.3,-15.454 -31.642,-22.675c-7.008,-5.412 -13.342,-10.637 -19.004,-15.662c-1.883,-1.675 -3.696,-3.329 -5.433,-4.963c-10.417,-9.833 -20.304,-20.05 -29.662,-30.65c-3.121,-3.533 -6.183,-7.108 -9.187,-10.725c-6.004,-7.238 -11.775,-14.646 -17.304,-22.221c-13.837,-18.946 -26.2,-38.946 -37.087,-60.017c-4.358,-8.429 -8.475,-17.025 -12.363,-25.796c-5.825,-13.154 -11.121,-26.692 -15.888,-40.612c-5.712,-16.817 -15.983,-45.996 -19,-67.55c-6.55,-46.6 -9.992,-71.921 -10.408,-75.962c-2.696,-28.296 -3.112,-60.446 -1.3,-96.546c0.975,-19.279 6.225,-31.129 15.75,-35.633c8.408,-54.312 23.371,-107.646 44.788,-160.008c0.046,-0.138 1.904,-3.854 5.483,-11.058c2.275,-4.692 3.625,-9.429 4.042,-14.121c-7.2,11.196 -13.663,22.067 -19.467,32.612Z" style="fill:url(#_Linear21);fill-rule:nonzero;"/><path d="M2192.879,1468.633c-11.071,0.242 -21.292,-0.079 -32.663,1.029c-22.742,2.217 -46.092,7.162 -70.037,12.829c-11.979,2.833 -23.1,5.096 -35.379,8.792c-2.792,0.838 -10.175,4.271 -14.146,6.292c-1.325,0.675 -2.713,1.408 -4.163,2.212c10.092,6.083 20.258,12.042 30.458,17.946c30.6,17.717 61.483,34.933 91.454,53.646c69.733,43.629 117.4,104.675 143,183.15c25.829,85.758 10.683,180.912 -36.146,256.458c-8.317,13.425 -17.517,26.525 -27.55,39.304l-24.625,28.946l-106.95,123.3l-43.671,51.712l-91.387,107.508c-40.517,50.5 -82.283,100.025 -125.304,148.483c-1.112,1.258 -6.921,6.829 -17.421,16.679c-0.467,0.467 -1.3,0.467 -1.767,0l-180.933,160.979c3.283,-2.513 6.675,-5.108 10.242,-7.846l363.363,-297.021l104.675,-84.371l233.133,-191.133c29.687,-23.183 54.733,-43.858 75.171,-61.929c37.354,-33.033 75.733,-84.604 88,-134.504c7.867,-23.725 12.813,-48.375 14.825,-73.938c0.808,-10.221 1.146,-20.596 1.008,-31.113c-0.067,-5.258 -0.25,-10.554 -0.55,-15.887c-1.658,-29.471 -6.012,-57.712 -13.079,-84.725c-1.413,-5.404 -2.933,-10.758 -4.558,-16.062c-3.263,-10.613 -6.95,-21.029 -11.075,-31.25c-119.138,-160.717 -189.194,-168.421 -189.194,-168.421c-0.8,0.046 16.572,5.166 15.801,4.912c-5.454,-1.775 -26.819,-9.425 -32.199,-10.962c-10.75,-3.071 -23.35,-6.675 -33.8,-8.808c-23.788,-4.854 -42.792,-6.279 -65.025,-6.279c-2.179,0 -7.346,0.025 -9.508,0.071Z" style="fill:url(#_Linear22);fill-rule:nonzero;"/></g><defs><linearGradient id="_Linear1" x1="0" y1="0" x2="1" y2="0" gradientUnits="userSpaceOnUse" gradientTransform="matrix(441.369406,738.71301,-738.71301,441.369406,1399.68605,948.188782)"><stop offset="0" style="stop-color:#413fbc;stop-opacity:1"/><stop offset="1" style="stop-color:#3333a4;stop-opacity:1"/></linearGradient><linearGradient id="_Linear2" x1="0" y1="0" x2="1" y2="0" gradientUnits="userSpaceOnUse" gradientTransform="matrix(-329.865583,255.529674,-255.529674,-329.865583,1407.614899,2049.820455)"><stop offset="0" style="stop-color:#3333a4;stop-opacity:1"/><stop offset="1" style="stop-color:#4c4ace;stop-opacity:1"/></linearGradient><linearGradient id="_Linear3" x1="0" y1="0" x2="1" y2="0" gradientUnits="userSpaceOnUse" gradientTransform="matrix(335.869598,477.7174,-477.7174,335.869598,1477.5074,1424.901072)"><stop offset="0" style="stop-color:#b4b5fc;stop-opacity:1"/><stop offset="1" style="stop-color:#9999f3;stop-opacity:1"/></linearGradient><linearGradient id="_Linear4" x1="0" y1="0" x2="1" y2="0" gradientUnits="userSpaceOnUse" gradientTransform="matrix(-120.795854,655.085182,-655.085182,-120.795854,2077.163696,1553.410085)"><stop offset="0" style="stop-color:#7b75ef;stop-opacity:1"/><stop offset="1" style="stop-color:#4c4ace;stop-opacity:1"/></linearGradient><linearGradient id="_Linear5" x1="0" y1="0" x2="1" y2="0" gradientUnits="userSpaceOnUse" gradientTransform="matrix(-120.795854,655.085182,-655.085182,-120.795854,2044.594955,1547.404607)"><stop offset="0" style="stop-color:#7b75ef;stop-opacity:1"/><stop offset="1" style="stop-color:#4c4ace;stop-opacity:1"/></linearGradient><linearGradient id="_Linear6" x1="0" y1="0" x2="1" y2="0" gradientUnits="userSpaceOnUse" gradientTransform="matrix(-120.795854,655.085182,-655.085182,-120.795854,2109.930038,1559.452184)"><stop offset="0" style="stop-color:#7b75ef;stop-opacity:1"/><stop offset="1" style="stop-color:#4c4ace;stop-opacity:1"/></linearGradient><linearGradient id="_Linear7" x1="0" y1="0" x2="1" y2="0" gradientUnits="userSpaceOnUse" gradientTransform="matrix(367.033545,590.041288,-590.041288,367.033545,2003.954697,2041.903559)"><stop offset="0" style="stop-color:#3333a4;stop-opacity:1"/><stop offset="1" style="stop-color:#4c4ace;stop-opacity:1"/></linearGradient><linearGradient id="_Linear8" x1="0" y1="0" x2="1" y2="0" gradientUnits="userSpaceOnUse" gradientTransform="matrix(367.033545,590.041288,-590.041288,367.033545,2486.057027,1742.013168)"><stop offset="0" style="stop-color:#3333a4;stop-opacity:1"/><stop offset="1" style="stop-color:#4c4ace;stop-opacity:1"/></linearGradient><linearGradient id="_Linear9" x1="0" y1="0" x2="1" y2="0" gradientUnits="userSpaceOnUse" gradientTransform="matrix(-441.369438,1291.586304,-1291.586304,-441.369438,1487.862523,1085.672251)"><stop offset="0" style="stop-color:#b5b5fb;stop-opacity:1"/><stop offset="1" style="stop-color:#5f59e5;stop-opacity:1"/></linearGradient><linearGradient id="_Linear10" x1="0" y1="0" x2="1" y2="0" gradientUnits="userSpaceOnUse" gradientTransform="matrix(-441.369438,1291.586304,-1291.586304,-441.369438,1528.488922,1099.55546)"><stop offset="0" style="stop-color:#b5b5fb;stop-opacity:1"/><stop offset="1" style="stop-color:#5f59e5;stop-opacity:1"/></linearGradient><linearGradient id="_Linear11" x1="0" y1="0" x2="1" y2="0" gradientUnits="userSpaceOnUse" gradientTransform="matrix(-441.369438,1291.586304,-1291.586304,-441.369438,1563.747025,1111.604055)"><stop offset="0" style="stop-color:#b5b5fb;stop-opacity:1"/><stop offset="1" style="stop-color:#5f59e5;stop-opacity:1"/></linearGradient><linearGradient id="_Linear12" x1="0" y1="0" x2="1" y2="0" gradientUnits="userSpaceOnUse" gradientTransform="matrix(-441.369438,1291.586304,-1291.586304,-441.369438,1415.660604,1060.999044)"><stop offset="0" style="stop-color:#b5b5fb;stop-opacity:1"/><stop offset="1" style="stop-color:#5f59e5;stop-opacity:1"/></linearGradient><linearGradient id="_Linear13" x1="0" y1="0" x2="1" y2="0" gradientUnits="userSpaceOnUse" gradientTransform="matrix(-441.369438,1291.586304,-1291.586304,-441.369438,2605.050913,1467.445373)"><stop offset="0" style="stop-color:#b5b5fb;stop-opacity:1"/><stop offset="1" style="stop-color:#5f59e5;stop-opacity:1"/></linearGradient><linearGradient id="_Linear14" x1="0" y1="0" x2="1" y2="0" gradientUnits="userSpaceOnUse" gradientTransform="matrix(-441.369438,1291.586304,-1291.586304,-441.369438,2468.739828,1420.864105)"><stop offset="0" style="stop-color:#b5b5fb;stop-opacity:1"/><stop offset="1" style="stop-color:#5f59e5;stop-opacity:1"/></linearGradient><linearGradient id="_Linear15" x1="0" y1="0" x2="1" y2="0" gradientUnits="userSpaceOnUse" gradientTransform="matrix(-441.369438,1291.586304,-1291.586304,-441.369438,2530.044301,1441.81366)"><stop offset="0" style="stop-color:#b5b5fb;stop-opacity:1"/><stop offset="1" style="stop-color:#5f59e5;stop-opacity:1"/></linearGradient><linearGradient id="_Linear16" x1="0" y1="0" x2="1" y2="0" gradientUnits="userSpaceOnUse" gradientTransform="matrix(-441.369438,1291.586304,-1291.586304,-441.369438,2246.18276,1344.810486)"><stop offset="0" style="stop-color:#b5b5fb;stop-opacity:1"/><stop offset="1" style="stop-color:#5f59e5;stop-opacity:1"/></linearGradient><linearGradient id="_Linear17" x1="0" y1="0" x2="1" y2="0" gradientUnits="userSpaceOnUse" gradientTransform="matrix(-441.369438,1291.586304,-1291.586304,-441.369438,2206.694794,1331.316503)"><stop offset="0" style="stop-color:#b5b5fb;stop-opacity:1"/><stop offset="1" style="stop-color:#5f59e5;stop-opacity:1"/></linearGradient><linearGradient id="_Linear18" x1="0" y1="0" x2="1" y2="0" gradientUnits="userSpaceOnUse" gradientTransform="matrix(-441.369438,1291.586304,-1291.586304,-441.369438,2183.304342,1323.323313)"><stop offset="0" style="stop-color:#b5b5fb;stop-opacity:1"/><stop offset="1" style="stop-color:#5f59e5;stop-opacity:1"/></linearGradient><linearGradient id="_Linear19" x1="0" y1="0" x2="1" y2="0" gradientUnits="userSpaceOnUse" gradientTransform="matrix(-441.369438,1291.586304,-1291.586304,-441.369438,2079.096476,1287.712733)"><stop offset="0" style="stop-color:#b5b5fb;stop-opacity:1"/><stop offset="1" style="stop-color:#5f59e5;stop-opacity:1"/></linearGradient><linearGradient id="_Linear20" x1="0" y1="0" x2="1" y2="0" gradientUnits="userSpaceOnUse" gradientTransform="matrix(329.347833,862.5,-862.5,329.347833,1781.594722,963.026682)"><stop offset="0" style="stop-color:#635de3;stop-opacity:1"/><stop offset="1" style="stop-color:#b4b5fc;stop-opacity:1"/></linearGradient><linearGradient id="_Linear21" x1="0" y1="0" x2="1" y2="0" gradientUnits="userSpaceOnUse" gradientTransform="matrix(-423.913034,1656.521734,-1656.521734,-423.913034,1702.879079,954.361725)"><stop offset="0" style="stop-color:#aaa9f8;stop-opacity:1"/><stop offset="1" style="stop-color:#615be4;stop-opacity:1"/></linearGradient><linearGradient id="_Linear22" x1="0" y1="0" x2="1" y2="0" gradientUnits="userSpaceOnUse" gradientTransform="matrix(-753.26093,1149.456533,-1149.456533,-753.26093,2464.855957,1431.288147)"><stop offset="0" style="stop-color:#b4b5fc;stop-opacity:1"/><stop offset="1" style="stop-color:#615be4;stop-opacity:1"/></linearGradient></defs></svg>