<svg height="100%" stroke-miterlimit="10"
  style="fill-rule:nonzero;clip-rule:evenodd;stroke-linecap:round;stroke-linejoin:round;" version="1.1"
  viewBox="0 0 1000 1000" width="100%" xml:space="preserve" xmlns="http://www.w3.org/2000/svg"
  xmlns:xlink="http://www.w3.org/1999/xlink">
  <g>
    <path
      d="M 250,866 L 160,866 C 112,862 38,796 100,693 L 200,520.5 C 225,493 239,495 265,500 L 360,540 C 480.5,601 498,642.5 500,700 L 500,760 C 498,811 462,856 420,866 L 250,866"
      fill="url(#LinearGradient)" fill-rule="nonzero" opacity="1" stroke="none" />
    <path
      d="M 420,866 C 455,861 478,846 500,820 C 614,696 615,597 500,517 C 394,444 333,374 380,210 L 260,417 C 240,457 256,471 280,490 L 360,540 C 480.5,601 498,642.5 500,700 L 500,760 C 498,811 462,856 420,866"
      fill="url(#LinearGradient_2)" fill-rule="nonzero" opacity="1" stroke="none" />
    <path d="M 500,517 C 394,444 333,374 380,210 L 400,174 C 367,295 421,350 603,433 C 578,444 525,480 500,517"
      fill="url(#LinearGradient_3)" fill-rule="nonzero" opacity="1" stroke="none" />
    <path d="M 500,820 L 660,660 C 738,589 710,482 603,433 C 578,444 525,480 500,517 C 615,597 614,696 500,820"
      fill="url(#LinearGradient_4)" fill-rule="nonzero" opacity="1" stroke="none" />
    <path d="M 400,174 C 367,295 421,350 603,433 C 690,389, 750,445 788,500 L 600,176 C 554,80 456,80 400,174"
      fill="url(#LinearGradient_5)" fill-rule="nonzero" opacity="1" stroke="none" />
    <path
      d="M 500,820 L 660,660 C 738,589 710,482 603,433 C 690,389, 750,445 788,500 C 816,554 797,606 750,640 L 500,820"
      fill="url(#LinearGradient_6)" fill-rule="nonzero" opacity="1" stroke="none" />
    <path
      d="M 788,500 C 816,554 797,606 750,640 L 500,820 C 486,856 511,866 540,866 L 840,866 C 888,862 962,796 900,693 L 788,500"
      fill="url(#LinearGradient_7)" fill-rule="nonzero" opacity="1" stroke="none" />
  </g>
  <defs>
    <linearGradient gradientTransform="matrix(104.391 -73.3432 73.3432 104.391 277.441 710.122)"
      gradientUnits="userSpaceOnUse" id="LinearGradient" x1="0" x2="1" y1="0" y2="0">
      <stop offset="0" stop-color="#373ebf" />
      <stop offset="1" stop-color="#5058e6" />
    </linearGradient>
    <linearGradient gradientTransform="matrix(-173.747 557.324 -557.324 -173.747 508.829 258.172)"
      gradientUnits="userSpaceOnUse" id="LinearGradient_2" x1="0" x2="1" y1="0" y2="0">
      <stop offset="0" stop-color="#91a7ff" />
      <stop offset="1" stop-color="#646cff" />
    </linearGradient>
    <linearGradient gradientTransform="matrix(157.951 295.666 -295.666 157.951 382.944 193.642)"
      gradientUnits="userSpaceOnUse" id="LinearGradient_3" x1="0" x2="1" y1="0" y2="0">
      <stop offset="0" stop-color="#5058e6" />
      <stop offset="1" stop-color="#373ebf" />
    </linearGradient>
    <linearGradient gradientTransform="matrix(-44.3023 219.578 -219.578 -44.3023 619.69 469.652)"
      gradientUnits="userSpaceOnUse" id="LinearGradient_4" x1="0" x2="1" y1="0" y2="0">
      <stop offset="0" stop-color="#646cff" />
      <stop offset="1" stop-color="#5058e6" />
    </linearGradient>
    <linearGradient gradientTransform="matrix(125.52 334.256 -334.256 125.52 539.723 235.139)"
      gradientUnits="userSpaceOnUse" id="LinearGradient_5" x1="0" x2="1" y1="0" y2="0">
      <stop offset="0" stop-color="#646cff" />
      <stop offset="1" stop-color="#91a7ff" />
    </linearGradient>
    <linearGradient gradientTransform="matrix(-241.23 357.206 -357.206 -241.23 754.054 449.312)"
      gradientUnits="userSpaceOnUse" id="LinearGradient_6" x1="0" x2="1" y1="0" y2="0">
      <stop offset="0" stop-color="#91a7ff" />
      <stop offset="1" stop-color="#646cff" />
    </linearGradient>
    <linearGradient gradientTransform="matrix(125.978 210.065 -210.065 125.978 596.433 613.665)"
      gradientUnits="userSpaceOnUse" id="LinearGradient_7" x1="0" x2="1" y1="0" y2="0">
      <stop offset="0" stop-color="#373ebf" />
      <stop offset="1" stop-color="#5058e6" />
    </linearGradient>
  </defs>
</svg>
